<svg width="30" height="30" viewBox="0 0 30 30" fill="none" xmlns="http://www.w3.org/2000/svg">
<path d="M20 1.25H10V6.25H20V1.25Z" fill="black"/>
<path d="M3.75 3.75H7.5V8.75H22.5V3.75H26.25V14.5925C24.3797 13.7043 22.2549 13.5081 20.2535 14.0388C18.2522 14.5695 16.5039 15.7928 15.3194 17.4911C14.135 19.1894 13.5912 21.2527 13.7847 23.3142C13.9782 25.3757 14.8965 27.3018 16.3762 28.75H3.75V3.75Z" fill="black"/>
<path d="M15.625 22.5C15.625 21.5972 15.8028 20.7032 16.1483 19.8691C16.4938 19.0349 17.0002 18.277 17.6386 17.6386C18.277 17.0002 19.0349 16.4938 19.8691 16.1483C20.7032 15.8028 21.5972 15.625 22.5 15.625C23.4028 15.625 24.2968 15.8028 25.1309 16.1483C25.9651 16.4938 26.723 17.0002 27.3614 17.6386C27.9998 18.277 28.5062 19.0349 28.8517 19.8691C29.1972 20.7032 29.375 21.5972 29.375 22.5C29.375 24.3234 28.6507 26.072 27.3614 27.3614C26.072 28.6507 24.3234 29.375 22.5 29.375C20.6766 29.375 18.928 28.6507 17.6386 27.3614C16.3493 26.072 15.625 24.3234 15.625 22.5ZM25.5175 23.75L23.75 21.9825V19.69H21.25V23.0175L23.75 25.5175L25.5175 23.75Z" fill="black"/>
</svg>
