<svg width="32" height="33" viewBox="0 0 32 33" fill="none" xmlns="http://www.w3.org/2000/svg">
<g clip-path="url(#clip0_1_57)">
<path d="M25.91 3.19995H21.7733V5.01662H25.7933C25.8255 5.01749 25.856 5.03087 25.8784 5.0539C25.9008 5.07694 25.9133 5.10781 25.9133 5.13995V30.56C25.9133 30.5921 25.9008 30.623 25.8784 30.646C25.856 30.669 25.8255 30.6824 25.7933 30.6833H6.20666C6.19062 30.6833 6.17474 30.6801 6.15996 30.6738C6.14518 30.6676 6.1318 30.6585 6.12061 30.647C6.10942 30.6355 6.10065 30.6218 6.09482 30.6069C6.08899 30.592 6.08622 30.576 6.08666 30.56V5.13995C6.08622 5.12392 6.08899 5.10795 6.09482 5.09301C6.10065 5.07806 6.10942 5.06444 6.12061 5.05294C6.1318 5.04144 6.14518 5.0323 6.15996 5.02606C6.17474 5.01983 6.19062 5.01661 6.20666 5.01662H10.2267V3.19995H6.09C5.85071 3.19952 5.61369 3.24627 5.39249 3.33754C5.17129 3.4288 4.97026 3.56279 4.80091 3.73184C4.63155 3.90089 4.49719 4.10167 4.40552 4.3227C4.31385 4.54373 4.26666 4.78067 4.26666 5.01995V30.6866C4.26931 31.1685 4.46257 31.6297 4.80423 31.9695C5.14588 32.3092 5.60815 32.5 6.09 32.5H25.91C26.393 32.5 26.8563 32.3083 27.1981 31.9671C27.54 31.6259 27.7324 31.163 27.7333 30.68V5.01329C27.7316 4.53117 27.5386 4.06945 27.1967 3.72948C26.8549 3.38951 26.3921 3.19907 25.91 3.19995Z" fill="black"/>
<path d="M21.6033 5.69666C21.476 5.94011 21.2844 6.14403 21.0493 6.28624C20.8143 6.42846 20.5447 6.50354 20.27 6.50332H11.7233C11.4484 6.50465 11.1784 6.43004 10.9431 6.2877C10.7078 6.14537 10.5164 5.94084 10.39 5.69666H6.76666V30H25.2333V5.69666H21.6033ZM12.2067 28.1233H9.90666V25.8333H12.2067V28.1233ZM12.2067 23.79H9.90666V21.5H12.2067V23.79ZM12.2067 19.4567H9.90666V17.1667H12.2067V19.4567ZM20.4667 27.65H14.25C14.1616 27.65 14.0768 27.6149 14.0143 27.5524C13.9518 27.4898 13.9167 27.4051 13.9167 27.3167C13.9167 27.2283 13.9518 27.1435 14.0143 27.081C14.0768 27.0184 14.1616 26.9833 14.25 26.9833H20.4667C20.5551 26.9833 20.6399 27.0184 20.7024 27.081C20.7649 27.1435 20.8 27.2283 20.8 27.3167C20.8 27.4051 20.7649 27.4898 20.7024 27.5524C20.6399 27.6149 20.5551 27.65 20.4667 27.65ZM22.0933 26.1667H14.25C14.1616 26.1667 14.0768 26.1315 14.0143 26.069C13.9518 26.0065 13.9167 25.9217 13.9167 25.8333C13.9167 25.7449 13.9518 25.6601 14.0143 25.5976C14.0768 25.5351 14.1616 25.5 14.25 25.5H22.0933C22.1817 25.5 22.2665 25.5351 22.329 25.5976C22.3915 25.6601 22.4267 25.7449 22.4267 25.8333C22.4267 25.9217 22.3915 26.0065 22.329 26.069C22.2665 26.1315 22.1817 26.1667 22.0933 26.1667ZM13.91 22.99C13.91 22.9016 13.9451 22.8168 14.0076 22.7543C14.0701 22.6918 14.1549 22.6567 14.2433 22.6567H20.4667C20.5551 22.6567 20.6399 22.6918 20.7024 22.7543C20.7649 22.8168 20.8 22.9016 20.8 22.99C20.8 23.0784 20.7649 23.1632 20.7024 23.2257C20.6399 23.2882 20.5551 23.3233 20.4667 23.3233H14.25C14.2057 23.3242 14.1616 23.3162 14.1204 23.2999C14.0792 23.2835 14.0416 23.2591 14.01 23.2281C13.9783 23.197 13.9532 23.16 13.936 23.1191C13.9188 23.0782 13.91 23.0343 13.91 22.99ZM22.0933 21.8333H14.25C14.1616 21.8333 14.0768 21.7982 14.0143 21.7357C13.9518 21.6732 13.9167 21.5884 13.9167 21.5C13.9167 21.4116 13.9518 21.3268 14.0143 21.2643C14.0768 21.2018 14.1616 21.1667 14.25 21.1667H22.0933C22.1817 21.1667 22.2665 21.2018 22.329 21.2643C22.3915 21.3268 22.4267 21.4116 22.4267 21.5C22.4267 21.5884 22.3915 21.6732 22.329 21.7357C22.2665 21.7982 22.1817 21.8333 22.0933 21.8333ZM13.91 18.6667C13.91 18.5782 13.9451 18.4935 14.0076 18.431C14.0701 18.3684 14.1549 18.3333 14.2433 18.3333H20.4667C20.5551 18.3333 20.6399 18.3684 20.7024 18.431C20.7649 18.4935 20.8 18.5782 20.8 18.6667C20.8 18.7551 20.7649 18.8398 20.7024 18.9024C20.6399 18.9649 20.5551 19 20.4667 19H14.25C14.2062 19.0009 14.1627 18.9931 14.1219 18.9772C14.0811 18.9612 14.0439 18.9374 14.0123 18.9071C13.9807 18.8768 13.9555 18.8405 13.9379 18.8004C13.9203 18.7603 13.9109 18.7171 13.91 18.6733V18.6667ZM22.0933 17.5133H14.25C14.1616 17.5133 14.0768 17.4782 14.0143 17.4157C13.9518 17.3532 13.9167 17.2684 13.9167 17.18C13.9167 17.0916 13.9518 17.0068 14.0143 16.9443C14.0768 16.8818 14.1616 16.8467 14.25 16.8467H22.0933C22.1817 16.8467 22.2665 16.8818 22.329 16.9443C22.3915 17.0068 22.4267 17.0916 22.4267 17.18C22.4267 17.2684 22.3915 17.3532 22.329 17.4157C22.2665 17.4782 22.1817 17.5133 22.0933 17.5133ZM22.76 12.0533C22.7602 12.3996 22.6257 12.7323 22.3849 12.9811C22.1442 13.23 21.8161 13.3754 21.47 13.3867C21.4425 13.7056 21.2965 14.0026 21.0608 14.2192C20.8251 14.4358 20.5168 14.5562 20.1967 14.5567C19.8472 14.6027 19.4917 14.5508 19.17 14.4067C18.8472 14.5512 18.4906 14.6032 18.14 14.5567C17.8005 14.5549 17.4754 14.419 17.2357 14.1786C16.9959 13.9382 16.8609 13.6128 16.86 13.2733V12.7333H15.1267V13.27C15.1258 13.6095 14.9908 13.9349 14.751 14.1753C14.5112 14.4157 14.1862 14.5516 13.8467 14.5533C13.4961 14.5995 13.1395 14.5475 12.8167 14.4033C12.4951 14.5479 12.1395 14.5999 11.79 14.5533C11.4699 14.5528 11.1616 14.4324 10.9259 14.2159C10.6902 13.9993 10.5442 13.7022 10.5167 13.3833C10.1706 13.3721 9.8425 13.2266 9.60174 12.9778C9.36099 12.729 9.22648 12.3962 9.22666 12.05V10.68C9.22648 10.3337 9.36099 10.001 9.60174 9.75218C9.8425 9.50334 10.1706 9.35791 10.5167 9.34666C10.5442 9.02774 10.6902 8.7307 10.9259 8.51412C11.1616 8.29754 11.4699 8.17714 11.79 8.17666C12.1395 8.13061 12.4949 8.18254 12.8167 8.32666C13.1394 8.18209 13.4961 8.13016 13.8467 8.17666C14.1859 8.17754 14.5109 8.31267 14.7508 8.55253C14.9906 8.79239 15.1258 9.11745 15.1267 9.45666V9.99332H16.8733V9.46999C16.8742 9.13078 17.0093 8.80572 17.2492 8.56586C17.4891 8.32601 17.8141 8.19087 18.1533 8.18999C18.5039 8.14385 18.8605 8.19577 19.1833 8.33999C19.5049 8.19536 19.8605 8.14341 20.21 8.18999C20.5301 8.19047 20.8384 8.31087 21.0741 8.52745C21.3098 8.74403 21.4558 9.04107 21.4833 9.35999C21.8294 9.37124 22.1575 9.51667 22.3982 9.76551C22.639 10.0143 22.7735 10.3471 22.7733 10.6933L22.76 12.0533Z" fill="#171717"/>
<path d="M20.2767 2.27333H17.6667C17.5783 2.27333 17.4935 2.23822 17.431 2.1757C17.3684 2.11319 17.3333 2.02841 17.3333 1.94C17.3333 1.8516 17.3684 1.76681 17.431 1.7043C17.4935 1.64179 17.5783 1.60667 17.6667 1.60667H19.3333V1.31667C19.3333 1.20829 19.3118 1.10099 19.2699 1.00103C19.228 0.90107 19.1667 0.810443 19.0894 0.734431C19.0122 0.65842 18.9206 0.598545 18.82 0.558297C18.7193 0.518048 18.6117 0.498231 18.5033 0.500001H13.5033C13.3944 0.497333 13.2861 0.516485 13.1847 0.55633C13.0833 0.596175 12.9909 0.655907 12.9129 0.732009C12.8349 0.808111 12.773 0.899044 12.7307 0.999453C12.6884 1.09986 12.6666 1.20772 12.6667 1.31667V1.68667C12.6671 1.76355 12.6523 1.83976 12.6232 1.91092C12.5941 1.98208 12.5512 2.04678 12.497 2.1013C12.4428 2.15582 12.3783 2.19909 12.3073 2.22861C12.2363 2.25814 12.1602 2.27334 12.0833 2.27333H11.7233C11.6158 2.27333 11.5093 2.29457 11.41 2.33582C11.3107 2.37707 11.2206 2.43752 11.1447 2.51371C11.0688 2.5899 11.0087 2.68032 10.9679 2.77979C10.927 2.87925 10.9062 2.98581 10.9067 3.09333V5.00333C10.9049 5.1117 10.9247 5.21933 10.965 5.31996C11.0052 5.42058 11.0651 5.51219 11.1411 5.58944C11.2171 5.6667 11.3077 5.72805 11.4077 5.76992C11.5077 5.81179 11.615 5.83335 11.7233 5.83333H20.2767C20.4933 5.83333 20.701 5.74729 20.8541 5.59414C21.0073 5.44098 21.0933 5.23326 21.0933 5.01667V3.09333C21.0938 2.98581 21.073 2.87925 21.0321 2.77979C20.9913 2.68032 20.9312 2.5899 20.8553 2.51371C20.7794 2.43752 20.6893 2.37707 20.59 2.33582C20.4907 2.29457 20.3842 2.27333 20.2767 2.27333ZM15.61 2.27333H14.25C14.1616 2.27333 14.0768 2.23822 14.0143 2.1757C13.9518 2.11319 13.9167 2.02841 13.9167 1.94C13.9167 1.8516 13.9518 1.76681 14.0143 1.7043C14.0768 1.64179 14.1616 1.60667 14.25 1.60667H15.6133C15.7017 1.60667 15.7865 1.64179 15.849 1.7043C15.9115 1.76681 15.9467 1.8516 15.9467 1.94C15.9467 2.02841 15.9115 2.11319 15.849 2.1757C15.7865 2.23822 15.7017 2.27333 15.6133 2.27333H15.61Z" fill="#171717"/>
<path d="M15.1266 10.6899H16.8766V12.0566H15.1266V10.6899Z" fill="black"/>
<path d="M14.4433 9.46995V13.27C14.4437 13.3487 14.4287 13.4269 14.3989 13.4998C14.3692 13.5728 14.3253 13.6392 14.2699 13.6952C14.2145 13.7512 14.1486 13.7958 14.076 13.8263C14.0034 13.8569 13.9254 13.8729 13.8466 13.8733C13.6813 13.8851 13.5153 13.8851 13.35 13.8733C13.4472 13.6895 13.4976 13.4845 13.4966 13.2766C13.4966 9.09995 13.5466 9.24662 13.35 8.88329C13.5153 8.87126 13.6813 8.87126 13.8466 8.88329C14.0029 8.88412 14.1527 8.94588 14.2641 9.05544C14.3756 9.16501 14.4398 9.31372 14.4433 9.46995Z" fill="black"/>
<path d="M12.23 8.87H11.7767C11.4527 8.87 11.19 9.13265 11.19 9.45666V13.2833C11.19 13.6073 11.4527 13.87 11.7767 13.87H12.23C12.554 13.87 12.8167 13.6073 12.8167 13.2833V9.45666C12.8167 9.13265 12.554 8.87 12.23 8.87Z" fill="black"/>
<path d="M10.51 10.0433V12.71C10.347 12.6998 10.1939 12.6281 10.0819 12.5092C9.96985 12.3904 9.90721 12.2333 9.90668 12.07V10.68C9.90645 10.5168 9.96894 10.3597 10.0812 10.2412C10.1935 10.1227 10.347 10.0519 10.51 10.0433Z" fill="black"/>
<path d="M20.2233 8.87H19.77C19.446 8.87 19.1833 9.13265 19.1833 9.45666V13.2833C19.1833 13.6073 19.446 13.87 19.77 13.87H20.2233C20.5474 13.87 20.81 13.6073 20.81 13.2833V9.45666C20.81 9.13265 20.5474 8.87 20.2233 8.87Z" fill="black"/>
<path d="M18.5033 13.27C18.5075 13.4794 18.5636 13.6844 18.6666 13.8667C18.5012 13.8765 18.3354 13.8765 18.17 13.8667C18.0912 13.8663 18.0132 13.8503 17.9406 13.8198C17.868 13.7892 17.8021 13.7446 17.7467 13.6886C17.6913 13.6326 17.6475 13.5662 17.6177 13.4932C17.588 13.4203 17.5729 13.3422 17.5733 13.2634V9.47004C17.5733 9.31149 17.6361 9.15938 17.7479 9.04695C17.8597 8.93453 18.0114 8.87092 18.17 8.87004C18.3353 8.85826 18.5013 8.85826 18.6666 8.87004C18.4533 9.24338 18.5033 9.08004 18.5033 13.27Z" fill="black"/>
<path d="M22.0933 10.68V12.06C22.0928 12.2233 22.0302 12.3803 21.9181 12.4992C21.8061 12.6181 21.653 12.6898 21.49 12.7V10.0333C21.6547 10.0419 21.8097 10.1142 21.9223 10.2348C22.0348 10.3554 22.0961 10.515 22.0933 10.68Z" fill="black"/>
</g>
<defs>
<clipPath id="clip0_1_57">
<rect width="32" height="32" fill="white" transform="translate(0 0.5)"/>
</clipPath>
</defs>
</svg>
