<svg width="32" height="33" viewBox="0 0 32 33" fill="none" xmlns="http://www.w3.org/2000/svg">
<path d="M6.66667 15.1666L8.66667 9.16663H23.3333L25.3333 15.1666M23.3333 21.8333C22.8029 21.8333 22.2942 21.6226 21.9191 21.2475C21.544 20.8724 21.3333 20.3637 21.3333 19.8333C21.3333 19.3029 21.544 18.7942 21.9191 18.4191C22.2942 18.044 22.8029 17.8333 23.3333 17.8333C23.8638 17.8333 24.3725 18.044 24.7475 18.4191C25.1226 18.7942 25.3333 19.3029 25.3333 19.8333C25.3333 20.3637 25.1226 20.8724 24.7475 21.2475C24.3725 21.6226 23.8638 21.8333 23.3333 21.8333ZM8.66667 21.8333C8.13623 21.8333 7.62753 21.6226 7.25245 21.2475C6.87738 20.8724 6.66667 20.3637 6.66667 19.8333C6.66667 19.3029 6.87738 18.7942 7.25245 18.4191C7.62753 18.044 8.13623 17.8333 8.66667 17.8333C9.1971 17.8333 9.70581 18.044 10.0809 18.4191C10.456 18.7942 10.6667 19.3029 10.6667 19.8333C10.6667 20.3637 10.456 20.8724 10.0809 21.2475C9.70581 21.6226 9.1971 21.8333 8.66667 21.8333ZM25.2267 8.49996C24.96 7.72663 24.2133 7.16663 23.3333 7.16663H8.66667C7.78667 7.16663 7.04 7.72663 6.77333 8.49996L4 16.5V27.1666C4 27.5202 4.14048 27.8594 4.39052 28.1094C4.64057 28.3595 4.97971 28.5 5.33333 28.5H6.66667C7.02029 28.5 7.35943 28.3595 7.60948 28.1094C7.85952 27.8594 8 27.5202 8 27.1666V25.8333H24V27.1666C24 27.5202 24.1405 27.8594 24.3905 28.1094C24.6406 28.3595 24.9797 28.5 25.3333 28.5H26.6667C27.0203 28.5 27.3594 28.3595 27.6095 28.1094C27.8595 27.8594 28 27.5202 28 27.1666V16.5L25.2267 8.49996Z" fill="black"/>
</svg>
